<?xml version="1.0" encoding="UTF-8"?>
<svg width="42px" height="42px" viewBox="0 0 42 42" version="1.1" xmlns="http://www.w3.org/2000/svg" xmlns:xlink="http://www.w3.org/1999/xlink">
    <title>icons8-bootstrap</title>
    <g id="Page-1" stroke="none" stroke-width="1" fill="none" fill-rule="evenodd">
        <g id="icons8-bootstrap" fill-rule="nonzero">
            <path d="M42,36.1666667 C42,39.389 39.389,42 36.1666667,42 L5.83333333,42 C2.61216667,42 0,39.389 0,36.1666667 L0,5.83333333 C0,2.611 2.61216667,0 5.83333333,0 L36.1666667,0 C39.389,0 42,2.611 42,5.83333333 L42,36.1666667 Z" id="Path" fill="#6C757D"></path>
            <path d="M30.8768421,22.7473684 C30.1242105,21.7052632 29.0357895,20.9873684 27.6347368,20.6052632 C27.6347368,20.6052632 28.8157895,20.1768421 29.8810526,18.5789474 C30.5178947,17.56 30.8421053,16.3326316 30.8421053,14.8968421 C30.8421053,12.4073684 29.9389474,10.4968421 28.1326316,9.18842105 C26.3263158,7.88 24.2884211,7 20.8263158,7 L10,7 L10,34.7894737 L22.0768421,34.7894737 C25.3536842,34.7663158 27.82,34.06 29.4989474,32.7052632 C31.1663158,31.3273684 32,29.2894737 32,26.5684211 C32,25.0631579 31.6294737,23.7894737 30.8768421,22.7473684 Z M16.9473684,11.6315789 C16.9473684,11.6315789 21.7757895,11.6315789 21.8684211,11.6315789 C23.6284211,11.6315789 25.0526316,13.0557895 25.0526316,14.8157895 C25.0526316,16.5757895 23.6284211,18 21.8684211,18 C21.7757895,18 16.9473684,18 16.9473684,18 L16.9473684,11.6315789 Z M22.7368421,30.1578947 L16.9473684,30.1578947 L16.9473684,23.2105263 L22.7368421,23.2105263 C24.6589474,23.2105263 26.2105263,24.7621053 26.2105263,26.6842105 C26.2105263,28.6063158 24.6589474,30.1578947 22.7368421,30.1578947 Z" id="Shape" fill="#FFFFFF"></path>
        </g>
    </g>
</svg>