<?xml version="1.0" encoding="UTF-8"?>
<svg width="35px" height="42px" viewBox="0 0 35 42" version="1.1" xmlns="http://www.w3.org/2000/svg" xmlns:xlink="http://www.w3.org/1999/xlink">
    <title>Shape</title>
    <g id="Page-1" stroke="none" stroke-width="1" fill="none" fill-rule="evenodd">
        <g id="icons8-heroku" fill="#6C757D" fill-rule="nonzero">
            <path d="M30.1304348,0 L4.56521739,0 C2.04721513,0 0,2.04721513 0,4.56521739 L0,37.4347826 C0,39.9527858 2.04721513,42 4.56521739,42 L30.1304348,42 C32.648438,42 34.6956522,39.9527858 34.6956522,37.4347826 L34.6956522,4.56521739 C34.6956522,2.04721513 32.648438,0 30.1304348,0 Z M8.72741191,35.5302314 L8.72741191,26.4461619 L13.2712294,30.9899794 L8.72741191,35.5302314 Z M25.8041782,35.558764 L21.4529554,35.558764 L21.4529554,19.6054685 C21.4529554,19.6054685 22.4908293,15.7856662 8.6703467,21.1676293 C8.64538043,21.2353945 8.64538043,6.41270426 8.64538043,6.41270426 L13.1606662,6.387738 L13.1606662,15.8819631 C13.1606662,15.8819631 25.8041782,10.9030229 25.8041782,19.6589674 L25.8041782,35.558764 Z M24.0244565,12.1334923 L19.2345446,12.1334923 C20.9607674,10.0256456 22.5193619,6.41270426 22.5193619,6.41270426 L27.4733358,6.41270426 C27.4733358,6.41270426 26.6244903,8.76664448 24.0244565,12.1334923 Z" id="Shape"></path>
        </g>
    </g>
</svg>