<?xml version="1.0" encoding="UTF-8"?>
<svg width="46px" height="42px" viewBox="0 0 46 42" version="1.1" xmlns="http://www.w3.org/2000/svg" xmlns:xlink="http://www.w3.org/1999/xlink">
    <title>Shape@3x</title>
    <g id="Page-1" stroke="none" stroke-width="1" fill="none" fill-rule="evenodd">
        <g id="icons8-react-native" transform="translate(-0.009766, -0.018822)" fill="#6C757D" fill-rule="nonzero">
            <path d="M32.5644536,0.00319661905 C31.7847686,-0.023020181 30.9686496,0.112914219 30.1503906,0.378196619 C28.5138746,0.908762619 26.7989686,1.94270642 25.0390626,3.37429042 C24.3493546,3.93532872 23.6533886,4.57665042 22.9550776,5.25710282 C22.2721636,4.59392552 21.5904986,3.96981902 20.9160156,3.42116542 C19.1575236,1.99073052 17.4472656,0.956388819 15.8144536,0.427024719 C14.1816436,-0.102339781 12.5569886,-0.118742781 11.2226566,0.651634119 C9.8883236,1.42201092 9.0903846,2.83617742 8.7324216,4.51491542 C8.3744586,6.19365362 8.4138906,8.19281362 8.7734376,10.4309306 C8.8983246,11.2083326 9.0764366,12.0238996 9.2792966,12.8547596 C8.5168606,13.0858256 7.7764423,13.3287766 7.0898437,13.5969466 C5.0177473,14.4062596 3.3032124,15.3744846 2.0546875,16.5266336 C0.8061625,17.6787836 0,19.0771256 0,20.6125716 C0,22.1480176 0.8061625,23.5444066 2.0546875,24.6965556 C3.3032124,25.8487056 5.0177473,26.8188836 7.0898437,27.6281966 C7.8240172,27.9149476 8.6188836,28.1731476 9.4394536,28.4172596 C9.1442966,29.5200996 8.9051596,30.5902886 8.7421876,31.6047596 C8.3823526,33.8446746 8.3443536,35.8440866 8.7031246,37.5266336 C9.0618996,39.2091816 9.8602436,40.6313556 11.2011716,41.4055406 C12.5421016,42.1797266 14.1740296,42.1607156 15.8105466,41.6301496 C17.4470626,41.0995836 19.1600156,40.0675936 20.9199216,38.6360096 C21.6032776,38.0801376 22.2945226,37.4460276 22.9863276,36.7727276 C23.6817616,37.4500846 24.3757716,38.0871596 25.0624996,38.6457746 C26.8209926,40.0762086 28.5332036,41.1085976 30.1660156,41.6379626 C31.7988266,42.1673266 33.4234806,42.1837296 34.7578126,41.4133526 C36.0921446,40.6429756 36.8881316,39.2288096 37.2460936,37.5500716 C37.6040556,35.8713336 37.5646226,33.8741256 37.2050776,31.6360096 C37.0416646,30.6187866 36.8023796,29.5450486 36.5058596,28.4387436 C37.3535346,28.1886876 38.1735096,27.9235426 38.9296876,27.6281966 C41.0017836,26.8188836 42.7163186,25.8487056 43.9648436,24.6965556 C45.2133686,23.5444066 46.0195316,22.1480176 46.0195316,20.6125716 C46.0195316,19.0771256 45.2133686,17.6787846 43.9648436,16.5266336 C42.7163186,15.3744846 41.0017836,14.4062596 38.9296876,13.5969466 C38.2332356,13.3249286 37.4814536,13.0788136 36.7070316,12.8449936 C36.9115406,12.0090426 37.0931106,11.1876266 37.2187496,10.4055406 C37.5785846,8.16562562 37.6165906,6.16426062 37.2578126,4.48171222 C36.8990446,2.79916502 36.0987416,1.37894602 34.7578126,0.604759119 C34.0873476,0.217666819 33.3441376,0.029413419 32.5644536,0.00319661905 Z M32.4726566,2.03835282 C32.9619196,2.05173162 33.3793006,2.16816022 33.7363276,2.37429042 C34.4503836,2.78655032 34.9781846,3.58891402 35.2597656,4.90944662 C35.5413466,6.22997762 35.5316136,8.01415162 35.1992186,10.0832746 C35.0854126,10.7916996 34.9201676,11.5425116 34.7324216,12.3117906 C32.6869166,11.8195166 30.4455096,11.4542226 28.0566406,11.2395246 C26.8574036,9.57815062 25.6251696,8.06460262 24.3828126,6.72194662 C25.0399476,6.08048362 25.6928286,5.48054752 26.3300776,4.96218102 C27.9557916,3.63975482 29.4948916,2.73991782 30.7792966,2.32350912 C31.4214996,2.11530402 31.9833926,2.02497412 32.4726566,2.03835282 Z M13.4960936,2.04421222 C13.9881846,2.03047492 14.5512566,2.12056312 15.1953126,2.32936852 C16.4834226,2.74697922 18.0252176,3.64641852 19.6523436,4.96999352 C20.2768026,5.47795522 20.9150636,6.06647262 21.5585936,6.69264962 C20.3070486,8.04629462 19.0646276,9.57296162 17.8574216,11.2492906 C15.4786546,11.4678956 13.2463716,11.8351716 11.2109376,12.3293686 C11.0245916,11.5643586 10.8593236,10.8174076 10.7460936,10.1125716 C10.4134076,8.04165162 10.4051056,6.25722562 10.6874996,4.93288412 C10.9698936,3.60854242 11.5020036,2.80012482 12.2226566,2.38405602 C12.5829816,2.17602182 13.0040026,2.05794952 13.4960936,2.04421222 Z M22.9863276,8.16139962 C23.8009376,9.04789262 24.6157216,10.0179816 25.4238276,11.0617906 C24.6297986,11.0286826 23.8260536,11.0090556 23.0097656,11.0090556 C22.1772226,11.0090556 21.3581756,11.0293196 20.5488276,11.0637436 C21.3571176,10.0191276 22.1715156,9.04855862 22.9863276,8.16139962 Z M23.0097656,13.0285876 C24.3696596,13.0285876 25.6951136,13.0844686 26.9843746,13.1789776 C27.8714956,14.4531326 28.7384136,15.8048766 29.5644536,17.2356186 C30.2902696,18.4927696 30.9470936,19.7479846 31.5449216,20.9875716 C30.9407826,22.2436036 30.2729496,23.5157936 29.5371096,24.7903056 C28.8893746,25.9122146 28.2129556,26.9777706 27.5253906,28.0051496 C26.0690786,28.1268716 24.5600686,28.1946026 23.0097656,28.1946026 C21.4221406,28.1946026 19.8792276,28.1228526 18.3906246,27.9953836 C17.7145076,26.9827766 17.0495006,25.9333616 16.4121096,24.8293686 C15.6779516,23.5577706 15.0133426,22.2879006 14.4101566,21.0344466 C15.0158716,19.7739136 15.6834666,18.4970016 16.4218746,17.2180406 C17.2435836,15.7947986 18.1079726,14.4508766 18.9902346,13.1828836 C20.2933746,13.0862456 21.6342156,13.0285876 23.0097656,13.0285876 Z M29.5585936,13.4289776 C31.2070646,13.6346626 32.7548486,13.9202266 34.1953126,14.2629626 C33.7678946,15.6641086 33.2414196,17.1276296 32.6035156,18.6379626 C32.1893326,17.8395406 31.7603646,17.0384066 31.2968746,16.2356186 C30.7351876,15.2627476 30.1501736,14.3352376 29.5585936,13.4289776 Z M16.3535156,13.4446026 C15.7744196,14.3339186 15.2046016,15.2433996 14.6542966,16.1965556 C14.1848596,17.0096446 13.7469866,17.8215576 13.3281246,18.6301496 C12.6957256,17.1288966 12.1724196,15.6736986 11.7480466,14.2805406 C13.1777676,13.9371846 14.7165316,13.6526346 16.3535156,13.4446026 Z M36.1738276,14.7942126 C36.8827096,15.0086986 37.5673316,15.2325316 38.1953126,15.4778056 C40.1054656,16.2238676 41.6164156,17.1073146 42.5957036,18.0110096 C43.5749896,18.9147036 43.9999996,19.7765176 43.9999996,20.6125716 C43.9999996,21.4486256 43.5749906,22.3104406 42.5957036,23.2141336 C41.6164156,24.1178286 40.1054656,25.0012756 38.1953126,25.7473376 C37.4974636,26.0199006 36.7307256,26.2670646 35.9335936,26.5012436 C35.3649646,24.7424646 34.6391736,22.9075936 33.7753906,21.0344466 C34.7685506,18.8839046 35.5708536,16.7871106 36.1738276,14.7942126 Z M9.8124996,14.8039776 C10.4085686,16.7769906 11.2005766,18.8529396 12.1796876,20.9817126 C11.3102356,22.8657766 10.5808526,24.7110756 10.0097656,26.4797596 C9.2407256,26.2517406 8.4999776,26.0112726 7.8242187,25.7473376 C5.9140651,25.0012756 4.4031156,24.1178286 3.4238281,23.2141336 C2.4445406,22.3104396 2.0195312,21.4486256 2.0195312,20.6125716 C2.0195312,19.7765176 2.4445406,18.9147036 3.4238281,18.0110096 C4.4031156,17.1073146 5.9140651,16.2238676 7.8242187,15.4778056 C8.4425396,15.2363046 9.1156806,15.0156586 9.8124996,14.8039776 Z M23.0097656,16.0188216 C20.2601866,16.0188216 18.0097656,18.2692426 18.0097656,21.0188216 C18.0097656,23.7684006 20.2601866,26.0188216 23.0097656,26.0188216 C25.7593446,26.0188216 28.0097656,23.7684006 28.0097656,21.0188216 C28.0097656,18.2692426 25.7593446,16.0188216 23.0097656,16.0188216 Z M13.3515626,23.3840556 C13.7722616,24.1966746 14.2097936,25.0121046 14.6816406,25.8293686 C15.0508136,26.4687946 15.4278386,27.0912146 15.8105466,27.7024156 C14.4675826,27.5161936 13.1909966,27.2804266 11.9921876,27.0012436 C12.3734176,25.8336316 12.8295096,24.6216176 13.3515626,23.3840556 Z M32.6289066,23.3840556 C33.1530496,24.6245466 33.6093746,25.8385026 33.9921876,27.0090556 C32.7895736,27.2879106 31.5090576,27.5228736 30.1621096,27.7082746 C30.5498366,27.0896006 30.9327476,26.4593916 31.3066406,25.8117906 C31.7750176,25.0005386 32.2108486,24.1907386 32.6289066,23.3840556 Z M11.4160156,28.9426496 C13.2258396,29.3713896 15.1874816,29.7007336 17.2675776,29.9153056 C18.6561456,31.9236806 20.1027326,33.7283186 21.5585936,35.3059306 C20.9075786,35.9406806 20.2623316,36.5364046 19.6308596,37.0500716 C18.0051456,38.3724986 16.4640916,39.2703806 15.1796876,39.6867906 C13.8952816,40.1031996 12.9367116,40.0482676 12.2226566,39.6360096 C11.5086006,39.2237486 10.9827526,38.4213846 10.7011716,37.1008526 C10.4195906,35.7803206 10.4273716,33.9981006 10.7597656,31.9289776 C10.9105586,30.9903136 11.1359156,29.9851956 11.4160156,28.9426496 Z M34.5703126,28.9504626 C34.8527526,29.9993696 35.0787786,31.0081716 35.2304686,31.9524156 C35.5631546,34.0233346 35.5714556,35.8077606 35.2890626,37.1321026 C35.0066686,38.4564446 34.4784646,39.2668146 33.7578126,39.6828836 C33.0371606,40.0989536 32.0693596,40.1532316 30.7812496,39.7356186 C29.4931396,39.3180076 27.9513436,38.4185686 26.3242186,37.0949936 C25.6882046,36.5776326 25.0384916,35.9770796 24.3828126,35.3371806 C25.8484296,33.7534116 27.3052326,31.9395796 28.7031246,29.9192126 C30.7884666,29.7060726 32.7555566,29.3786966 34.5703126,28.9504626 Z M19.8769536,30.1203836 C20.9037166,30.1763396 21.9440096,30.2141336 23.0097656,30.2141336 C24.0402696,30.2141336 25.0468286,30.1786086 26.0410156,30.1262436 C25.0247266,31.4974146 23.9887996,32.7439706 22.9570316,33.8664776 C21.9258906,32.7415726 20.8919096,31.4927896 19.8769536,30.1203836 Z" id="Shape"></path>
        </g>
    </g>
</svg>