<?xml version="1.0" encoding="UTF-8"?>
<svg width="42px" height="42px" viewBox="0 0 42 42" version="1.1" xmlns="http://www.w3.org/2000/svg" xmlns:xlink="http://www.w3.org/1999/xlink">
    <title>dotnet</title>
    <g id="Page-1" stroke="none" stroke-width="1" fill="none" fill-rule="evenodd">
        <g id="Artboard" transform="translate(-17.000000, -81.000000)" fill-rule="nonzero">
            <g id="dotnet" transform="translate(17.000000, 81.000000)">
                <rect id="Rectangle" fill="#6C757D" x="0" y="0" width="42" height="42"></rect>
                <path d="M7.48574474,26.8333026 C7.18877895,26.8333026 6.93635526,26.7343816 6.72847368,26.5364474 C6.52059211,26.3334474 6.41665132,26.0924079 6.41665132,25.8133289 C6.41665132,25.5290921 6.52059211,25.2855658 6.72847368,25.0825658 C6.93635526,24.8795658 7.18877895,24.7780658 7.48574474,24.7780658 C7.78766579,24.7780658 8.04256711,24.8795658 8.25044868,25.0825658 C8.46327632,25.2855658 8.56969474,25.5290921 8.56969474,25.8133289 C8.56969474,26.0924079 8.46327632,26.3334474 8.25044868,26.5364474 C8.04256711,26.7343816 7.78766579,26.8333026 7.48574474,26.8333026 Z" id="Path" fill="#FFFFFF"></path>
                <path d="M19.3574868,26.6658553 L17.4271447,26.6658553 L12.3415526,18.6426579 C12.2128816,18.4396579 12.1064079,18.2290132 12.0223158,18.0108158 L11.9777368,18.0108158 C12.0173421,18.2443026 12.0371447,18.7441579 12.0371447,19.5103816 L12.0371447,26.6658553 L10.3295132,26.6658553 L10.3295132,15.75 L12.3860395,15.75 L17.3009605,23.5829079 C17.5088421,23.9077632 17.6424868,24.1310263 17.7018947,24.2527895 L17.7315526,24.2527895 C17.6820921,23.9635789 17.6573158,23.4738553 17.6573158,22.7836184 L17.6573158,15.75 L19.3574868,15.75 L19.3574868,26.6658553 Z" id="Path" fill="#FFFFFF"></path>
                <polygon id="Path" fill="#FFFFFF" points="27.6729342 26.6658553 21.6964079 26.6658553 21.6964079 15.75 27.4353947 15.75 27.4353947 17.2876974 23.4634474 17.2876974 23.4634474 20.3781974 27.1236184 20.3781974 27.1236184 21.90825 23.4634474 21.90825 23.4634474 25.1358026 27.6729342 25.1358026"></polygon>
                <polygon id="Path" fill="#FFFFFF" points="36.1666974 17.2876974 33.1078816 17.2876974 33.1078816 26.6658553 31.3408421 26.6658553 31.3408421 17.2876974 28.2894868 17.2876974 28.2894868 15.75 36.1666974 15.75"></polygon>
            </g>
        </g>
    </g>
</svg>