<?xml version="1.0" encoding="UTF-8"?>
<svg width="42px" height="18px" viewBox="0 0 42 18" version="1.1" xmlns="http://www.w3.org/2000/svg" xmlns:xlink="http://www.w3.org/1999/xlink">
    <title>Shape@3x</title>
    <g id="Page-1" stroke="none" stroke-width="1" fill="none" fill-rule="evenodd">
        <g id="icons8-npm" fill="#6C757D" fill-rule="nonzero">
            <path d="M0,0 L0,14.4375 L11.8125,14.4375 L11.8125,17.0625 L21,17.0625 L21,14.4375 L42,14.4375 L42,0 L0,0 Z M2.33276374,2.332764 L11.6663819,2.332764 L11.6689453,2.332764 L11.6689453,12.396972 L9.33361813,12.396972 L9.33361813,4.66809131 L7.00085453,4.66809131 L7.00085453,12.396972 L2.33276374,12.396972 L2.33276374,2.332764 Z M14.0017093,2.332764 L23.332764,2.332764 L23.3353273,2.332764 L23.3353273,12.3944087 L18.667236,12.3944087 L18.667236,14.729736 L14.0017093,14.729736 L14.0017093,2.332764 Z M25.6680913,2.332764 L39.667236,2.332764 L39.6697993,2.332764 L39.6697993,12.396972 L37.334472,12.396972 L37.334472,4.66809131 L35.0017093,4.66809131 L35.0017093,12.396972 L32.6689453,12.396972 L32.6689453,4.66809131 L30.333618,4.66809131 L30.333618,12.396972 L25.6680913,12.396972 L25.6680913,2.332764 Z M18.667236,4.66809131 L18.667236,10.0642093 L21,10.0642093 L21,4.66809131 L18.667236,4.66809131 Z" id="Shape"></path>
        </g>
    </g>
</svg>